<svg xmlns="http://www.w3.org/2000/svg" width="600" height="600">
  <style>
    .path {
      fill: #004680;
    }
    @media (prefers-color-scheme: dark) {
      .path {
        fill: #fff;
      }
    }
  </style>
  <defs/>
  <defs>
    <linearGradient id="b" x1="-.013" x2="1" y1=".628" y2=".267" gradientUnits="objectBoundingBox">
      <stop offset="0" stop-color="#5850ec"/>
      <stop offset="1" stop-color="#1c64f2"/>
    </linearGradient>
    <clipPath id="a">
      <path d="M0 0h600v600H0z"/>
    </clipPath>
  </defs>
  <g>
    <g clip-path="url(#a)">
      <path fill="url(#b)" d="M432.282 14.934C489.113 81 515.4 175.837 488.758 245.811c-26.64 69.618-105.848 114.018-187.543 153.444C219.52 438.326 135.694 472.07 61.1 450.4c-74.591-22.022-139.947-99.81-140.3-172.27S-15.619 138.542 42.278 72.475C99.819 6.409 150.967-58.592 219.875-72.8c69.263-14.207 155.931 22.023 212.407 87.734z" transform="translate(90.2 108.882)"/>
      <g>
        <path class="path" d="M303.894 442.29H137.255a48.278 48.278 0 01-48.238-48.238V157.25a48.278 48.278 0 0148.238-48.238h271.884a48.278 48.278 0 0148.238 48.238v114.016a13.156 13.156 0 11-26.311 0V157.25a21.957 21.957 0 00-21.926-21.926H137.255a21.957 21.957 0 00-21.927 21.926v236.8a21.957 21.957 0 0021.926 21.926h166.64a13.156 13.156 0 110 26.311z"/>
      </g>
      <g>
        <path class="path" d="M444.217 196.716H102.173a13.156 13.156 0 010-26.311h342.044a13.156 13.156 0 110 26.311z"/>
      </g>
      <g>
        <path class="path" d="M356.517 529.991a13.161 13.161 0 01-13.156-13.152v-30.7a118.535 118.535 0 01118.4-118.398h21.926a13.156 13.156 0 110 26.311h-21.926a92.191 92.191 0 00-92.09 92.09v30.7a13.16 13.16 0 01-13.154 13.149z"/>
      </g>
      <g>
        <path class="path" d="M444.221 442.29a13.156 13.156 0 01-8.893-22.856l42.045-38.537-42.028-38.538a13.16 13.16 0 0117.787-19.4l52.626 48.238a13.187 13.187 0 01-.018 19.4l-52.626 48.237a13.092 13.092 0 01-8.893 3.456z"/>
      </g>
    </g>
  </g>
</svg>